{"title":"The Last Witch Hunter (2015) BRRIP 1080P NO CINAVIA","uid":13522962,"size":3539333459,"categoryP":"video","categoryS":"hd___movies","magnet":"?xt=urn:btih:4904a89a39ada12141c7b8e6cba9b3d84834d085&amp;dn=The+Last+Witch+Hunter+%282015%29+BRRIP+1080P+NO+CINAVIA&amp;tr=udp%3A%2F%2Ftracker.leechers-paradise.org%3A6969&amp;tr=udp%3A%2F%2Fzer0day.ch%3A1337&amp;tr=udp%3A%2F%2Fopen.demonii.com%3A1337&amp;tr=udp%3A%2F%2Ftracker.coppersurfer.tk%3A6969&amp;tr=udp%3A%2F%2Fexodus.desync.com%3A6969","seeders":4,"leechers":4,"uploader":"jmanwf","files":5,"time":1455375423,"description":"Description\r\nThe modern world holds many secrets, but the most astounding secret of all is that witches still live amongst us; vicious supernatural creatures intent on unleashing the Black Death upon the world. Armies of witch hunters battled the unnatural enemy across the globe for centuries, including Kaulder, a valiant warrior who managed to slay the all-powerful Queen Witch, decimating her followers in the process. In the moments right before her death, the Queen curses Kaulder with her own immortality, forever separating him from his beloved wife and daughter in the afterlife. Today Kaulder is the only one of his kind remaining, and has spent centuries hunting down rogue witches, all the while yearning for his long-lost loved ones. However, unbeknownst to Kaulder, the Queen Witch is resurrected and seeks revenge on her killer causing an epic battle that will determine the survival of the human race.\r\n\r\n\r\n\r\nVideo\r\nID : 1\r\nFormat : AVC\r\nFormat/Info : Advanced Video Codec\r\nFormat profile :   \r\nFormat settings, CABAC : Yes\r\nFormat settings, ReFrames : 3 frames\r\nCodec ID : avc1\r\nCodec ID/Info : Advanced Video Coding\r\nDuration : 1h 46mn\r\nBit rate mode : Variable\r\nBit rate : 3 740 Kbps\r\nMaximum bit rate : 30.0 Mbps\r\nWidth : 1 920 pixels\r\nHeight : 1 080 pixels\r\nDisplay aspect ratio : 16:9\r\nFrame rate mode : Constant\r\nFrame rate : 23.976 fps\r\nColor space : YUV\r\nChroma subsampling : 4:2:0\r\nBit depth : 8 bits\r\nScan type : Progressive\r\nBits/(Pixel*Frame) : 0.075\r\nStream size : 2.78 GiB (85%)\r\nTitle : h264 1920x1080 16/9\r\n\r\nAudio\r\nID : 2\r\nFormat : AC-3\r\nFormat/Info : Audio Coding 3\r\nMode extension : CM (complete main)\r\nFormat settings, Endianness : Big\r\nCodec ID : ac-3\r\nDuration : 1h 46mn\r\nBit rate mode : Constant\r\nBit rate : 640 Kbps\r\nChannel(s) : 6 channels\r\nChannel positions : Front: L C R, Side: L R, LFE\r\nSampling rate : 48.0 KHz\r\nBit depth : 16 bits\r\nCompression mode : Lossy\r\nStream size : 488 MiB (15%)\r\nTitle : ac3 48000Hz 6Ch.\r\nLanguage : English\r\n\r\n\r\n\r\n \nhttp://s14.postimg.org/qvm2qvu9d/image.jpg\r\n\r\n\r\n\r\n \nhttp://s14.postimg.org/fxat8p5o1/image.jpg","torrent":{"xt":"urn:btih:4904a89a39ada12141c7b8e6cba9b3d84834d085","amp;dn":"The+Last+Witch+Hunter+%282015%29+BRRIP+1080P+NO+CINAVIA","amp;tr":["udp%3A%2F%2Ftracker.leechers-paradise.org%3A6969","udp%3A%2F%2Fzer0day.ch%3A1337","udp%3A%2F%2Fopen.demonii.com%3A1337","udp%3A%2F%2Ftracker.coppersurfer.tk%3A6969","udp%3A%2F%2Fexodus.desync.com%3A6969"],"infoHash":"4904a89a39ada12141c7b8e6cba9b3d84834d085","infoHashBuffer":{"type":"Buffer","data":[73,4,168,154,57,173,161,33,65,199,184,230,203,169,179,216,72,52,208,133]},"announce":[],"urlList":[]}}